<svg class="social__icon" role="img" xmlns="http://www.w3.org/2000/svg" viewBox="0 0 267 267">
  <title>Facebook</title>
  <path fill="#fff" d="M252.26368,0H14.73632A14.73469,14.73469,0,0,0,0,14.73632V252.26368A14.73591,14.73591,0,0,0,14.73632,267H142.613V163.60368H107.818V123.308h34.795V93.59115c0-34.48621,21.063-53.26463,51.82707-53.26463A285.48713,285.48713,0,0,1,225.53243,41.914V77.95417l-21.33651.0097c-16.73122,0-19.9708,7.95044-19.9708,19.61714v25.727h39.90245l-5.19545,40.29571h-34.707V267h68.03856A14.73712,14.73712,0,0,0,267,252.26368V14.73632A14.73591,14.73591,0,0,0,252.26368,0Z"/>
</svg>
